<svg width="140" height="140" viewBox="0 0 140 140" fill="none" xmlns="http://www.w3.org/2000/svg">
<path fill-rule="evenodd" clip-rule="evenodd" d="M45 120C54.9411 120 63 111.941 63 102C63 101.623 62.9884 101.25 62.9657 100.879C64.7027 99.9209 67.1211 99 70 99C72.8789 99 75.2973 99.9209 77.0343 100.879C77.0116 101.25 77 101.623 77 102C77 111.941 85.0589 120 95 120C104.941 120 113 111.941 113 102C113 92.0589 104.941 84 95 84C87.5738 84 81.1979 88.4972 78.4472 94.9167C76.9019 94.0575 74.1559 93 70 93C65.8441 93 63.0981 94.0575 61.5528 94.9167C58.8021 88.4972 52.4262 84 45 84C35.0589 84 27 92.0589 27 102C27 111.941 35.0589 120 45 120ZM45 112C50.5228 112 55 107.523 55 102C55 96.4771 50.5228 92 45 92C39.4772 92 35 96.4771 35 102C35 107.523 39.4772 112 45 112ZM95 112C100.523 112 105 107.523 105 102C105 96.4772 100.523 92 95 92C89.4772 92 85 96.4772 85 102C85 107.523 89.4772 112 95 112Z" fill="#B60000"/>
<path d="M50 20L35 56H105L93.5 20C93.5 20 80 26 65 26C56.5 26 50 20 50 20Z" fill="url(#paint0_linear)"/>
<path d="M70 62C33 62 10 80 10 80H130C130 80 107 62 70 62Z" fill="url(#paint1_linear)"/>
<defs>
<linearGradient id="paint0_linear" x1="84.4" y1="80" x2="80.2541" y2="20.2879" gradientUnits="userSpaceOnUse">
<stop offset="0.0228215" stop-color="#FFE0E0"/>
<stop offset="1" stop-color="#FF3838"/>
</linearGradient>
<linearGradient id="paint1_linear" x1="84.4" y1="80" x2="80.2541" y2="20.2879" gradientUnits="userSpaceOnUse">
<stop offset="0.0228215" stop-color="#FFE0E0"/>
<stop offset="1" stop-color="#FF3838"/>
</linearGradient>
</defs>
</svg>
